<?xml version="1.0" encoding="UTF-8"?> <svg xmlns="http://www.w3.org/2000/svg" version="1.1" viewBox="0 0 850.4 850.4"><defs><style> .st0, .st1, .st2, .st3, .st4 { stroke-miterlimit: 10; } .st0, .st1, .st3 { fill: #c1292e; } .st0, .st3 { stroke: #010101; } .st1, .st2 { stroke: #1e1e1c; } .st2 { stroke-width: 2.7px; } .st2, .st5, .st4 { fill: #fff; } .st6 { fill: #2aaebf; } .st7 { fill: #a4d09a; } .st8 { fill: #1e1e1c; } .st3 { stroke-width: 3px; } .st4 { stroke: #fff; stroke-width: 4.8px; } .st9 { display: none; } </style></defs><g id="Calque_10" class="st9"><circle class="st6" cx="423.7" cy="468.7" r="171.5"></circle></g><g id="Fond_blanc"><circle class="st5" cx="426.7" cy="468.7" r="259.1"></circle><path class="st7" d="M423.2,436.7v-40.5,81-40.5Z"></path></g><g id="Matterhorn"><g id="Calque_8"><g><polygon class="st2" points="285.3 630 299.7 618.8 316.3 606.2 326.7 596.7 341.1 587.7 348.7 580.1 351.9 573.8 353.7 564.8 356.8 559.4 359.5 555.8 360.4 549 363.6 544.1 364 537.3 362.7 531 364 528.3 368.1 526.1 373.5 525.2 378.4 523.4 380.2 518.9 387.9 516.6 388.8 506.3 388.8 496.8 392.4 489.6 397.8 481.1 401.4 476.6 405.9 472.1 407.7 469.8 414.4 478.8 421.2 486.5 424.3 496.4 427.9 499.5 428.8 506.3 440.1 512.6 433.8 518 428.4 527.4 424.3 540.5 420.7 553.5 419.4 567 420.7 577.8 417.1 582.8 411.3 589.1 402.7 601.2 396.4 609.3 388.3 614.3 379.3 622.4 372.6 624.6 363.6 631.4 358.6 637.2 355.5 638.1 345.1 640.8 335.7 644.4 324.9 646.7 316.3 647.1 302.8 645.8 275.8 645.8 285.3 630"></polygon><polygon class="st8" points="407.7 467.6 415.3 468.5 424.3 472.5 432 475.2 444.1 485.1 456.7 497.3 468.9 504 475.6 512.1 481.9 524.7 486 535.1 492.7 546.8 497.2 554 496.3 568.8 500.8 574.7 505.8 577.4 510.7 577.8 519.3 585.5 525.6 592.7 530.5 600.3 537.3 601.2 540.9 603.5 544.9 603.9 550.3 601.2 563.4 609.8 580.5 618.8 603.4 646.2 331.6 644.9 355.5 637.2 360 634.5 371.2 624.2 379.8 621.5 389.2 612.5 396.9 608 408.6 592.7 420.7 576.5 419.4 561.6 420.7 550.8 424.3 539.6 426.6 530.6 432.4 518.4 439.2 511.7 428.8 505.4 427.5 497.7 423.4 494.6 420.3 485.6 407.7 467.6"></polygon></g></g></g><g id="Watch__x26__cow"><g><path class="st1" d="M329.9,351.8c-2,.4-2.8.9-2.8,2.1s.1,1.3.3,1.9l6.3,26.5,3.4-14.8-2.6-12.3c-.6-2.6-.8-2.9-3-3.4v-1.1h18.8v1.1h-1.2c-.9,0-1.6.7-1.6,1.7s0,.9.1,1.3l5.9,27.7,4.7-19.7c.2-1,.3-2.3.3-3.9,0-4.4-1.4-7.2-3.6-7.2h-1.2v-1.1h13v1.1h-1.4c-2.2.2-4.8,4.8-6.2,11.2l-8.1,35.1h-7.2l-6-28-6.7,28h-6.8l-9.8-43.6c-.4-1.7-.9-2.4-2.2-2.7h-1v-1.1h18.8v1.1Z"></path><path class="st1" d="M360.1,396.5c4.4-.1,7.2-3.9,10.2-13.3l9.5-32.5h9.6l12.7,41.4c1,3.9,1.5,4.4,4,4.4h1.9v1.1h-24.8v-1.1h2.6c1.9,0,2.8-.6,2.8-2s-.1-1.5-.4-2.5l-4.1-13.9h-11.3l-1.4,4.9c-.6,2.2-.9,4.1-.9,5.9,0,5.3,2.2,7.6,7.1,7.6v1.1h-17.4v-1.1ZM383.8,377.2l-5.2-18.7-5.6,18.7h10.9Z"></path><path class="st1" d="M406.3,350.7h40.3v19.8h-.7c-.1-4.7-1.3-8.2-4.2-12.7-2.1-3-6.2-6.1-7.8-6h-1v41.3c0,2.1,1.3,3.2,3.9,3.4h2v1.1h-25.5v-1.1h2.2c2.8-.1,4.3-1.5,4.2-4.1v-40.6h-.9c-2.4,0-6.8,3.9-9.2,8.4-2,3.6-2.6,5.8-2.6,9.4v.8h-.8v-19.8Z"></path><path class="st1" d="M487.8,372.8h-.7c-.6-5.1-1.9-9.2-4.4-13.7-3-5.5-6.3-8.2-10.2-8.2s-5.4,2.3-7,7.7c-1.3,4.3-1.9,8.8-1.9,15.5s.6,12.4,2.4,16.8c1.7,4.4,4,6.1,8,6.1,6,0,10.9-4,13.2-10.7,1-3,1.4-5.2,1.4-8h.7c0,4.2-.4,6.1-1.7,9.4-3.1,7.3-8,10.4-16.1,10.4s-8.8-1.1-12-3.2c-6.1-3.9-10.1-11.6-10.1-19.6s3.9-16.1,10-20.8c4-3.1,8.1-4.7,11.9-4.7s4.1.5,6.6,1.7c2.3,1.1,4.3,1.8,5.4,1.8s2.2-.5,3.1-1.3c.4-.4.5-.8.6-1.8h.8v22.5Z"></path><path class="st1" d="M492.5,396.5h1c1.7,0,3.1-1.6,3.1-3.6v-38.7c0-1.5-.9-2.4-2.4-2.5h-1.7v-1.1h21.1v1.1h-1c-1.9,0-3.4,1.5-3.3,3.2v16.1h13.4v-16.1c0-1.8-1.2-3.2-2.9-3.2h-1.1v-1.1h21.1v1.1h-1.4c-1.8,0-3,1.3-2.9,3.2v38.7c0,1.7,1,2.7,2.6,2.7h1.8v1.1h-21.1v-1.1h1.1c1.9-.1,2.8-1.4,2.9-4.2v-20.1h-13.4v21.5c0,1.8.7,2.7,2.2,2.7h2.1v1.1h-21.1v-1.1Z"></path><path class="st0" d="M373.3,442.7c0,4.1-2,8.8-4.9,11.9-2.2,2.3-4.6,3.4-7.4,3.4s-5.9-1.6-11.2-7.2c-2.3,2.9-3.6,4.2-5.4,5.2-2.2,1.2-4.6,1.8-7,1.8-6.9,0-12-5.1-12-12s1.6-7.3,4.5-10.5c2.2-2.3,3.9-3.4,7-4.4-2-4.4-2.7-7-2.7-9.4,0-7,5.8-12.5,13.2-12.5s10.8,3.1,10.8,8-.6,3.6-1.9,5.1c-1.4,1.8-3.1,3-7,4.6,1,1.5,2,3,2.3,3.3l1.8,2.8c.4.6,1.3,1.7,2.6,3.4,3.6-9.2,6.6-12.6,10.9-12.6s6.7,3.1,6.7,7.4-2.8,7.5-6.5,7.5-6.3-3-6.3-6.8.3-2.5,1.3-4.9c-2.8,3.2-3.8,5.1-5.4,10.3,1.8,2.7,2.8,3.8,5.2,5.9,3.4,3,5,3.8,7,3.8s4-1.8,4-4.2h0c0,0-.2-2.3-.2-2.3h.7l.2,2v.2ZM337.1,432.1c-2.2.4-3.1,1.3-3.1,2.9.2,4,2.6,9.1,6.7,14.1,2.5,3,4,4.2,5.4,4.2s1.9-.8,3.1-3c-5.8-7.7-7-9.4-12.1-18.2ZM351.2,423.3c0-1.5-2.1-7.3-3.8-10.3-.9-1.7-1.6-2.3-2.8-2.3s-1.7.7-1.7,1.8c0,2.3,2,6.9,5.7,13.5,1.9-.7,2.6-1.4,2.6-2.7Z"></path><path class="st0" d="M424.5,432.8h-.7c-.6-5.1-1.9-9.2-4.4-13.7-3-5.5-6.3-8.2-10.2-8.2s-5.4,2.3-7,7.7c-1.3,4.3-1.9,8.8-1.9,15.5s.6,12.4,2.4,16.8c1.7,4.4,4,6.1,8,6.1,6,0,10.9-4,13.2-10.7,1-3,1.4-5.2,1.4-8h.7c0,4.2-.4,6.1-1.7,9.4-3.1,7.3-8,10.4-16.1,10.4s-8.8-1.1-12-3.2c-6.1-3.9-10.1-11.6-10.1-19.6s3.9-16.1,10-20.8c4-3.1,8.1-4.7,11.9-4.7s4.1.5,6.6,1.7c2.3,1.1,4.3,1.8,5.4,1.8s2.2-.5,3.1-1.3c.4-.4.5-.8.6-1.8h.8v22.5Z"></path><path class="st0" d="M467.9,417.7c3.5,4.2,5.4,9.9,5.4,16.3s-1.9,12.2-5.4,16.4c-4,4.7-10.6,7.9-16.3,7.9s-11.9-3.3-15.8-7.9c-3.5-4.2-5.4-9.9-5.4-16.3s2-12.3,5.4-16.3c4-4.6,10.6-7.9,16.1-7.9s12,3.2,16,7.9ZM445.6,415.3c-1.2,2.9-1.9,10-1.9,18.8,0,17.5,2,23.3,8.3,23.3s4.9-1.5,6.2-4.6c1.2-2.8,1.9-10,1.9-18.7s-.8-16.3-2-19.1c-1.3-2.9-3.4-4.3-6.1-4.3s-5.1,1.5-6.3,4.6Z"></path><path class="st0" d="M491.8,411.8c-2,.4-2.8.9-2.8,2.1s.1,1.3.3,1.9l6.3,26.5,3.4-14.8-2.6-12.3c-.6-2.6-.8-2.9-3-3.4v-1.1h18.8v1.1h-1.2c-.9,0-1.6.7-1.6,1.7s0,.9.1,1.3l5.9,27.7,4.7-19.7c.2-1,.3-2.3.3-3.9,0-4.4-1.4-7.2-3.6-7.2h-1.2v-1.1h13v1.1h-1.4c-2.2.2-4.8,4.8-6.2,11.2l-8.1,35.1h-7.2l-6-28-6.7,28h-6.8l-9.8-43.6c-.4-1.7-.9-2.4-2.2-2.7h-1v-1.1h18.8v1.1Z"></path></g></g><g id="Calque_9"><path class="st3" d="M615.8,646.1c35.2-36.6,60.1-83.9,68.9-137.8,23.1-141.4-72.8-274.7-214.2-297.7-141.4-23.1-274.7,72.8-297.7,214.2-13.7,83.7,14.4,164.5,68.9,221.4h-74.6v111h521.6v-111h-72.8ZM259,440c15.2-93.2,103.1-156.4,196.3-141.2,93.2,15.2,156.4,103.1,141.2,196.3-15.2,93.2-103.1,156.4-196.3,141.2-93.2-15.2-156.4-103.1-141.2-196.3Z"></path><polygon id="Croix" class="st5" points="263.2 688.2 237.7 688.2 237.7 662.7 207.1 662.7 207.1 688.2 181.6 688.2 181.6 718.8 207.1 718.8 207.1 744.4 237.7 744.4 237.7 718.8 263.2 718.8 263.2 688.2"></polygon><g><path class="st5" d="M282.9,692.7c2,1.2,4.9,2.3,8,2.3,4.6,0,7.2-2.4,7.2-5.9s-1.8-5.1-6.5-6.9c-5.6-2-9.1-4.9-9.1-9.8s4.5-9.4,11.2-9.4,6.1.8,7.6,1.7l-1.2,3.6c-1.1-.6-3.4-1.6-6.6-1.6-4.7,0-6.5,2.8-6.5,5.2s2.1,4.8,6.9,6.7c5.8,2.3,8.8,5.1,8.8,10.1s-3.9,10-12.1,10-7-1-8.8-2.3l1.1-3.7Z"></path><path class="st5" d="M321.3,698.1l-8.8-34.5h4.7l4.1,17.5c1,4.3,1.9,8.6,2.6,11.9h.1c.6-3.4,1.6-7.5,2.8-12l4.6-17.4h4.7l4.2,17.5c1,4.1,1.9,8.2,2.4,11.8h.1c.7-3.8,1.7-7.6,2.8-11.9l4.6-17.4h4.6l-9.8,34.5h-4.7l-4.4-18c-1.1-4.4-1.8-7.8-2.3-11.3h-.1c-.6,3.4-1.4,6.8-2.7,11.3l-4.9,18h-4.7Z"></path><path class="st5" d="M370.3,663.6v34.5h-4.5v-34.5h4.5Z"></path><path class="st5" d="M391.6,667.4h-10.5v-3.8h25.5v3.8h-10.5v30.7h-4.5v-30.7Z"></path><path class="st5" d="M415,695.5l19.1-28v-.2h-17.5v-3.7h23.3v2.7l-19,27.9v.2h19.3v3.7h-25.2v-2.6Z"></path><path class="st5" d="M470.4,682h-13.4v12.4h14.9v3.7h-19.4v-34.5h18.6v3.7h-14.2v10.9h13.4v3.7Z"></path><path class="st5" d="M484.7,664.1c2.3-.5,5.5-.7,8.5-.7,4.8,0,7.8.9,10,2.8,1.7,1.5,2.7,3.9,2.7,6.6,0,4.6-2.9,7.6-6.5,8.8v.2c2.7.9,4.2,3.4,5.1,7,1.1,4.8,1.9,8.1,2.7,9.5h-4.6c-.6-1-1.3-3.9-2.3-8.2-1-4.8-2.9-6.6-6.9-6.7h-4.2v14.9h-4.5v-34ZM489.1,679.8h4.6c4.8,0,7.8-2.6,7.8-6.6s-3.2-6.4-7.9-6.5c-2.1,0-3.7.2-4.4.4v12.6Z"></path><path class="st5" d="M519.1,663.6h4.5v30.8h14.7v3.7h-19.2v-34.5Z"></path><path class="st5" d="M555.8,687.3l-3.6,10.9h-4.6l11.7-34.5h5.4l11.8,34.5h-4.8l-3.7-10.9h-12.2ZM567.1,683.8l-3.4-9.9c-.8-2.3-1.3-4.3-1.8-6.3h-.1c-.5,2-1.1,4.1-1.7,6.2l-3.4,10h10.4Z"></path><path class="st5" d="M588.4,698.1v-34.5h4.9l11.1,17.5c2.6,4,4.6,7.7,6.2,11.2h.1c-.4-4.7-.5-8.9-.5-14.2v-14.4h4.2v34.5h-4.5l-11-17.5c-2.4-3.8-4.7-7.8-6.5-11.5h-.2c.3,4.4.4,8.5.4,14.3v14.7h-4.2Z"></path><path class="st5" d="M629,664.1c2.7-.4,5.9-.7,9.5-.7,6.4,0,11,1.5,14,4.3,3.1,2.8,4.9,6.8,4.9,12.4s-1.7,10.2-5,13.4c-3.2,3.2-8.5,5-15.3,5s-5.8-.2-8.1-.4v-33.9ZM633.4,694.6c1.1.2,2.8.3,4.5.3,9.5,0,14.7-5.3,14.7-14.6,0-8.1-4.6-13.3-14-13.3s-4,.2-5.2.5v27.2Z"></path><path class="st5" d="M282.4,721.9h3.1v21.6h10.4v2.6h-13.5v-24.3Z"></path><path class="st5" d="M301.2,721.9v14.4c0,5.4,2.4,7.7,5.7,7.7s5.9-2.4,5.9-7.7v-14.4h3.2v14.1c0,7.5-3.9,10.5-9.2,10.5s-8.7-2.8-8.7-10.4v-14.3h3.2Z"></path><path class="st5" d="M334.6,746.1l-3.1-5.4c-1.3-2.1-2.1-3.4-2.8-4.8h0c-.7,1.4-1.4,2.7-2.6,4.8l-2.9,5.3h-3.6l7.4-12.3-7.1-12h3.6l3.2,5.7c.9,1.6,1.6,2.8,2.2,4.1h.1c.7-1.4,1.3-2.6,2.2-4.1l3.3-5.7h3.6l-7.4,11.8,7.6,12.5h-3.6Z"></path><path class="st5" d="M345.1,721.9v14.4c0,5.4,2.4,7.7,5.7,7.7s5.9-2.4,5.9-7.7v-14.4h3.2v14.1c0,7.5-3.9,10.5-9.2,10.5s-8.7-2.8-8.7-10.4v-14.3h3.2Z"></path><path class="st5" d="M365.2,722.2c1.6-.3,3.9-.5,6-.5,3.3,0,5.5.6,7,2,1.2,1.1,1.9,2.7,1.9,4.6,0,3.2-2,5.3-4.6,6.2h0c1.9.8,3,2.5,3.6,5,.8,3.4,1.4,5.7,1.9,6.7h-3.2c-.4-.7-.9-2.8-1.6-5.8-.7-3.3-2-4.6-4.9-4.7h-3v10.5h-3.1v-23.9ZM368.3,733.3h3.2c3.3,0,5.5-1.8,5.5-4.6s-2.3-4.5-5.6-4.5c-1.5,0-2.6.1-3.1.3v8.9Z"></path><path class="st5" d="M389.6,746.1v-10.3l-7.7-14h3.6l3.4,6.7c.9,1.8,1.7,3.3,2.4,5h0c.7-1.6,1.5-3.2,2.4-5l3.5-6.7h3.6l-8.1,13.9v10.3h-3.2Z"></path><path class="st5" d="M429.8,745.3c-1.2.6-3.5,1.2-6.4,1.2-6.8,0-12-4.4-12-12.3s5.1-12.7,12.7-12.7,4.9.6,5.8,1.1l-.8,2.6c-1.2-.6-2.9-1-4.9-1-5.7,0-9.5,3.6-9.5,10s3.4,9.8,9.3,9.8,3.9-.4,5.1-1l.6,2.5Z"></path><path class="st5" d="M433.7,722.2c1.6-.3,3.9-.5,6-.5,3.3,0,5.5.6,7,2,1.2,1.1,1.9,2.7,1.9,4.6,0,3.2-2,5.3-4.6,6.2h0c1.9.8,3,2.5,3.6,5,.8,3.4,1.4,5.7,1.9,6.7h-3.2c-.4-.7-.9-2.8-1.6-5.8-.7-3.3-2-4.6-4.9-4.7h-3v10.5h-3.1v-23.9ZM436.8,733.3h3.2c3.3,0,5.5-1.8,5.5-4.6s-2.3-4.5-5.6-4.5c-1.5,0-2.6.1-3.1.3v8.9Z"></path><path class="st5" d="M457.2,738.5l-2.5,7.6h-3.2l8.2-24.3h3.8l8.3,24.3h-3.3l-2.6-7.6h-8.6ZM465.1,736.1l-2.4-7c-.5-1.6-.9-3-1.3-4.4h0c-.4,1.4-.8,2.9-1.2,4.4l-2.4,7h7.3Z"></path><path class="st5" d="M475.3,721.9h13.1v2.6h-9.9v8.1h9.2v2.6h-9.2v11h-3.1v-24.3Z"></path><path class="st5" d="M497.4,724.5h-7.4v-2.7h18v2.7h-7.4v21.6h-3.2v-21.6Z"></path><path class="st5" d="M523.3,734.8h-9.4v8.7h10.5v2.6h-13.6v-24.3h13.1v2.6h-10v7.7h9.4v2.6Z"></path><path class="st5" d="M528.4,722.2c1.9-.3,4.2-.5,6.7-.5,4.5,0,7.7,1,9.8,3,2.2,2,3.4,4.8,3.4,8.7s-1.2,7.2-3.5,9.4c-2.3,2.3-6,3.5-10.7,3.5s-4.1-.1-5.7-.3v-23.9ZM531.6,743.7c.8.1,1.9.2,3.2.2,6.7,0,10.3-3.7,10.3-10.3,0-5.7-3.2-9.4-9.8-9.4s-2.8.1-3.7.3v19.1Z"></path><path class="st5" d="M564.4,724.5h-7.4v-2.7h18v2.7h-7.4v21.6h-3.2v-21.6Z"></path><path class="st5" d="M597.5,733.8c0,8.4-5.1,12.8-11.3,12.8s-10.9-5-10.9-12.3,4.8-12.7,11.3-12.7,10.9,5.1,10.9,12.3ZM578.6,734.2c0,5.2,2.8,9.8,7.7,9.8s7.8-4.6,7.8-10.1-2.5-9.9-7.7-9.9-7.8,4.8-7.8,10.1Z"></path><path class="st5" d="M604.7,721.9v14.4c0,5.4,2.4,7.7,5.7,7.7s5.9-2.4,5.9-7.7v-14.4h3.2v14.1c0,7.5-3.9,10.5-9.2,10.5s-8.7-2.8-8.7-10.4v-14.3h3.2Z"></path><path class="st5" d="M624.8,722.2c1.6-.3,3.9-.5,6-.5,3.3,0,5.5.6,7,2,1.2,1.1,1.9,2.7,1.9,4.6,0,3.2-2,5.3-4.6,6.2h0c1.9.8,3,2.5,3.6,5,.8,3.4,1.4,5.7,1.9,6.7h-3.2c-.4-.7-.9-2.8-1.6-5.8-.7-3.3-2-4.6-4.9-4.7h-3v10.5h-3.1v-23.9ZM627.9,733.3h3.2c3.3,0,5.5-1.8,5.5-4.6s-2.3-4.5-5.6-4.5c-1.5,0-2.6.1-3.1.3v8.9Z"></path><path class="st5" d="M643.8,742.3c1.4.9,3.5,1.6,5.6,1.6,3.2,0,5.1-1.7,5.1-4.1s-1.3-3.6-4.6-4.8c-4-1.4-6.4-3.5-6.4-6.9s3.1-6.6,7.8-6.6,4.3.6,5.4,1.2l-.9,2.6c-.8-.4-2.4-1.2-4.6-1.2-3.3,0-4.6,2-4.6,3.6s1.5,3.4,4.8,4.7c4.1,1.6,6.2,3.6,6.2,7.1s-2.8,7-8.5,7-4.9-.7-6.2-1.6l.8-2.6Z"></path></g><path id="Armahi" d="M484.2,137.3c0,1-.3,2-.2,3,.1,1.3-.5,1.8-1.6,2.1-.5-.4-.7-.9-.6-1.6.4-1.8,0-3.6-.3-5.4-.6-3.3-1.2-6.5-1.7-9.8-.7-3.9-1.3-7.8-2-11.6-.8-4.2-1.5-8.4-2.4-12.6-1-4.8-2.2-9.5-3.3-14.2,0-.2-.1-.4-.2-.7-.5.3-1,.5-1.4.9-1.1,1-2.1,2.1-3.1,3.2-.6.7-1.1,1.4-1.5,2.2-1.2,2.6-2.8,4.9-4.4,7.3-1.3,2-2.9,3.8-4.3,5.6-.1.2-.4.3-.6.4-1.8,1.1-3.7,1-5.6.7-.5,0-.8,0-1.1.4-.7,1-1.5,1.9-2.2,2.8,1.3.8,2.5,1.7,3.7,2.5.4.2,1.7-.2,2.1-.6,1.1-1.2,2.2-2.4,3.4-3.4.6-.5,1.4-.9,2.1-1.2.3-.1.6,0,1,0,2,0,3.1,1.3,4,2.8.2.2.1.6,0,1,0,1.4-.2,2.8-.3,4.1,0,.5-.4,1-.6,1.6-.6,1.4-1.8,1.9-3.1,2.3-.2,0-.5.3-.5.5-.2,1-.4,1.9-.6,2.9-.3,1.9-.6,3.8-.8,5.7-.2,1.6-.3,3.3-.4,4.9-.2,2-.5,4-.7,6-.3,2.5-.7,4.9-1,7.4-.4,3.4-.6,6.9-1,10.3-.5,4-1.2,8-1.7,12-.2,1.7-.3,3.4-.5,5-.3,2.2-.7,4.3-1.1,6.5-.8,4.1-1.6,8.3-2.5,12.4-1.2,5.3-2.3,10.6-4,15.7-.2.5-.3.6-.8.5-.5,0-1,0-1.7-.1.6-2,1.2-4,1.7-5.9.6-2.2,1.1-4.3,1.6-6.5.8-3.6,1.7-7.2,2.4-10.9.7-3.2,1.2-6.5,1.8-9.7.4-2.3.8-4.7,1.1-7.1.3-2.2.6-4.5.9-6.7.3-2.2.6-4.4.9-6.6.2-1.3.3-2.7.4-4,.2-2.1.4-4.1.6-6.2.4-3.4.7-6.8,1.1-10.1.3-2.7.7-5.4.9-8.1.2-2.7.3-5.4.4-8.1-1.9-.2-3.8-.4-5.6,0-.7.1-1.3.2-2,.3-.2,0-.5.2-.6.4-.6.9-1.1,1.8-1.6,2.8-.4.8-1,1.3-1.8,1.5-.5.1-.6.4-.6.9.2,1.7.2,3.5.4,5.2.1,1,.6,2,.9,3,.2.7.4,1.4.4,2.2.2,2.7.2,5.5.5,8.2.3,2.9.7,5.8,1,8.7.2,1.9.5,3.7.7,5.6,0,.9.8,1.5,1.2,2.2.5.9.9,1.8.5,2.9-.6,1.4-1.2,2.9-1.7,4.3-1,2.8-2.2,5.5-3.1,8.3-1.3,4.2-2.9,8.3-4.6,12.3-.5,1.3-1.2,2.1-2.5,2.6-1.2.5-2.2,0-3.2-.4-.9-.4-1.7-1.1-2.6-1.7-.2.3-.5.6-.6.9-.9,1.5-1.9,3.1-2.8,4.6-.2.3-.2.6-.2.9,0,1.5-.3,3.1.3,4.6.1.4.3.8.5,1.1,1.4,1.9,3.3,3.2,5.5,3.9.7.3,1.4,1.7,1.3,2.4-.1.5,0,1.1-.3,1.4-.3.3-.9.2-1.4.3-.4,0-.9,0-1.3,0-2.2-.7-4.5-1.4-6.7-2.1-.2,0-.4-.1-.5-.2-2.3-1.6-4.5-3.1-6.8-4.7-.6-.4-.9-1.8-.5-2.4.8-1.4,1.7-2.7,2.5-4.1.5-.8.9-1.7,1.3-2.6.7-1.6,1.4-3.3,2.2-4.9.5-1,.4-1.9,0-2.7-.5-1-.4-1.8.3-2.6.8-.9,1.5-2,2.2-3,.3-.4.5-.8.5-1.3.1-1.7.6-3.3,1.3-4.8.4-.9.4-1.7.4-2.7-.1,0-.2,0-.3,0-1.4.3-1.4.3-1.6,1.8-.1.8-.4,1.6-.6,2.4,0,.1-.1.3-.2.4-1.6,1.1-2.5,2.7-3.6,4.1-1.8,2.3-4,4.1-6.1,6.1-.3.3-.5.1-.7,0-1.1-.7-2.2-1.4-3.3-2.2-1.1,1-2.3,2-3.4,3-.1.1-.2.4-.1.5,0,.8.2,1.6.3,2.3.1,1,.2,2,.3,2.9.2,1.9.4,3.7.6,5.6,0,.8.2,1.6.3,2.3,0,.8-.7,1.4-1.4,1.5-1.2.2-2.1-.3-2.9-1.1-.3-.3-.6-.6-.9-.8-1.5-1-2.3-2.6-3.2-4-1.6-2.7-2.9-5.6-3.6-8.7-.3-1.4-.4-3.1.5-4.3.6-.7,1.6-1.3,2.6-1.6.9-.3,2-.1,3-.2.3,0,.6-.1.7-.3,1.5-1.6,3-3.2,4.4-4.9.3-.4.2-1.2.3-1.9,0-.8,0-1.6.1-2.5.2-1.4,1.2-2.1,2.2-2.9,2.7-2.2,5-4.7,7.3-7.2,1-1.1,1.7-2.6,2.6-3.9,0-.1,0-.4,0-.6-1.3-1.9-1.6-4.1-2.1-6.3-.4-1.9-.5-3.9-.8-5.9-.1-.8-.3-1.6-.5-2.6-.5.3-.9.5-1.3.8-1.6,1.3-3.4,1.6-5.4,1.5-.8,0-1.6-.2-2.5-.2-1.7,0-2.6-1.3-3.7-2.3-.1-.1-.2-.4-.3-.6-.8-3.6-1.6-7.1-2.2-10.7-.3-2-.2-4-.4-6-.2-2.7-.4-5.3-.6-8-.3-2.7-.6-5.3-.9-8-.4-3-.8-6-1.3-9-.5-3.1-1.1-6.2-1.6-9.3,0-.6.2-1.3.3-2,.1-1.5.9-2.5,2.2-3.1.7-.3,1.4-.7,2.1-.9,3.1-.8,6.2-1.6,9.4-2.2,1.7-.3,3.6-.3,5.3-.2,1.1,0,2.3.5,2.9,1.7.5.9,1.3,1.1,2.1,1.3,1.3-1.2,1-2.8,1.1-4.3,0-.1-.2-.3-.4-.4-1.2-.4-1.9-1.3-2.5-2.3-.8-1.3-1.8-2.4-2.2-3.9-.5-1.7-.7-3.5-.4-5.3.2-1.4,1-2.5,1.9-3.4.8-.8,2-1.4,3.1-1.7,2.4-.6,4.8-1,7.2-1.5,0,0,0,0,.1-.1,1.4,0,2.7,0,4.1,0,.2.1.4.3.6.3,1,.4,1.7,1.1,2.3,1.9.1.2.2.4.2.6,0,1.5-.1,2.9,0,4.4,0,1.1.4,2.2,1.2,3,.8.7,1.4,1.6,2.1,2.4.2.3.3.4,0,.7-.4.4-.8.7-1.4.6-.4,0-.7.1-.6.5.1.6.3,1.3.9,1.7,1.1.7,2.1,1.5,3.1,2.3.1,0,.2.1.3.2.5-.5,1-1,1.5-1.4.3-.3.7-.5,1,0,.3.3.5.6.8.9.6.9.3,2.2-.6,2.8-.4.3-.9.5-1.4.8-.3.2-.5.2-.8,0-1.3-.9-2.6-1.8-3.9-2.7-.1,0-.3-.1-.5-.2-.1.9-.2,1.7-.3,2.5-.1.9-.7,1.6-1.6,1.7-.9.1-1.7.2-2.6.3-.5,0-1.1,0-1.6.2-.7.2-.8.9-.9,1.6-.2,1.6.8,3.3,2.3,3.8,1.1.4,2.2.7,3.3,1,.6.2,1,.4,1.4.9.8.9,1.7,1.8,2.7,2.6.2.2.5.3.8.3,1.2,0,2.5,0,3.7,0,.9,0,1.7.4,2.4,1,.7.7,1.3,1.4,2,2.1.2-.3.4-.5.5-.7,1.4-2.5,3.4-4.4,5.4-6.4,2.8-2.7,5.7-5.3,8.6-8,.3-.3.5-.8.5-1.2,0-1.3,0-2.7,0-4,0-1.1.3-2.2.9-3.1.7-1,1.6-1.5,2.6-2.1,1-.6,1.8-.3,2.7,0,1.5.7,2.3,2.2,2.8,3.7.7,2,.3,4-.6,5.9-.3.7-.8,1.5-.7,2.4.4,3.3,1,6.5,1.8,9.7.6,2.5,1.1,5,1.5,7.6.4,2.3.8,4.7,1.2,7,.3,1.9.7,3.7,1.1,5.6.7,3.8,1.5,7.6,2.2,11.4.4,2.1.8,4.3,1.1,6.5.3,1.4.5,2.8.8,4.2v1.1Z"></path></g><g id="Vaches"><path d="M284.5,228c-.7,2.8-1,5.2-1.9,7.4-.7,1.9-2,3.6-3.2,5.3-.8,1-1.8.9-2.8,0-2-2-2.2-3.1-.8-5.6.8-1.4,1.7-2.7,2.4-4.2.3-.6.5-1.7.1-2.2-1.5-2-3.1-3.9-4.7-5.7-1.6-1.8-3.5-3.4-5.1-5.2-1.7-1.8-2.9-1.9-4.5,0-4.2,4.8-8.1,9.8-12.5,14.4-2.7,2.8-5.9,5.2-9.3,7.1-2.3,1.4-5.2,1.7-7.8,2.6-.8.3-1.6,1-2.1,1.7-1.6,2.8-1.1,6.1.8,8.6.4.5.4,1.7,0,2.2-1,1.5-.7,2.4.8,3.2,5.3,3,11,4.5,16.8,5.8,2.1.5,4.3.6,6.4,1.2,1.1.3,2.4,1.2,2.8,2.2.6,1.3-.3,2.5-1.6,3.3-1.3.8-2.4,1.1-3.6,0-.6-.6-1.3-1.2-2.1-1.6-.7-.3-1.8-.7-2.4-.4-1.9,1-3.6.6-5.3-.1-5-2-10.2-3.1-15.6-2.7-3,.2-5.6-.6-7.2-3.5-.3-.5-1.1-1-1.6-.9-.4,0-.8.9-1.1,1.4-.2.3-.3.6-.2.5-3.3-.7-6.5-1.2-9.6-2.2-1.8-.5-3.1-.1-3.5,1.3-.9,2.9-1.6,5.8-2.1,8.8-.1.7.7,1.5,1,2.4.7,1.6,1.6,3.2,1.9,4.8.8,6.1,3.5,11,9,13.8,2.2,1.1,5,1.5,7.5,1.8,1.7.2,3.7,1.3,4.1,3,.1.5-.1,1.4-.5,1.8-1.2,1-2.4,1.9-3.8,2.7-2.2,1.2-3,.8-4.6-1.2-.7-.8-1.8-1.5-2.9-1.8-1.9-.5-3.9-.4-5.3-2.1-.4-.4-1.1-.6-1.7-.7-2.1,0-2.8-1.5-3.3-3.2-1.8-5.6-4.5-10.7-9-14.7-2.3-2-4.1-4.2-4.1-7.4,0-.3-.1-.7-.3-1-2.6-4.7-4.9-9.5-7.9-13.9-2.7-4-6.1-7.4-9-11.2-2.7-3.6-5.2-7.3-7.6-11-.9-1.4-1.5-3.1-1.8-4.7-.8-3.5,2-5.5,4.3-7,4.4-2.8,8.9-5.4,13.7-7.4,5.1-2.1,9.8-4.7,14.1-8.2,8.4-6.8,17.3-12.9,25.7-19.5,4.4-3.5,8.8-7.1,12.5-11.3,5-5.7,11.5-7.6,18.5-8.7,6.5-1,13.1-1.7,19.7-2.6,3.2-.4,3.6-1.3,3-4.4-.1-.6.5-1.7,1-1.9,3.4-1.5,3.4-1.5,3-5.2,0-.3.2-.7.3-1.1.3.1.8.2,1,.4,1,1.6,2.1,1.1,3.5.4,1.8-.9,3.8-1.6,5.8-1.9,1.8-.3,2.8-1.2,3.4-2.7.5-1.2.7-2.5,1.2-3.7.2-.5.7-.9,1.1-1.4.4.5,1.2,1,1.2,1.5,0,1.6,0,3.3-.3,4.8-.9,3.8-.9,3.6,2.2,6,2,1.6,3.8,3.5,5.3,5.5,2,2.7,4.5,4.2,7.6,5.1,3.6,1,4.3,2.2,3.5,5.9-.3,1.2-.4,2.4-.5,3.6-.2,1.7-1.2,2.6-2.7,3.2-3.1,1.3-6.2,2.7-9.2,4.3-.7.3-1,1.4-1.5,2.2-.6.9-1,2.1-1.8,2.8-2,1.8-4.1,3.3-6.2,4.9-1.9,1.4-3.1,1.2-4.5-.7-.7-.9-1-2-1.7-3-.3-.5-.9-1-1.4-1-.4,0-1,.6-1.3,1-1.8,2.7-1.7,5.7-1.1,8.8.5,2.6.8,5.2,1.4,7.8.4,1.9-.2,3.2-2,4.2-2,1.1-2.3,2.2-.6,3.7,1.8,1.6,2.2,3.5,2.7,5.7,1,4,2.9,7.6,6.3,10.4,3.5,2.8,7.4,3.6,11.6,3.9.7,0,1.4.2,2,.4,2.2.8,2.7,2.7.9,4.2-1.2.9-2.7,1.5-4.1,2.1-.5.2-1.2-.2-1.8-.4-1.3-.5-2.5-1.2-3.8-1.7-3.2-1.4-6.5-2.6-9.6-4.2-1.1-.6-1.6-2.1-2.4-3.2-.4-.5-.9-1-1.6-1.7ZM195.7,213.3c2.7.7,3,1.6,1.8,3.3-.7,1-.7,2.2,1,2.6,1.1.3,1.4,1.2.9,2.3-.3.5-.6,1.1-.8,1.6-.6,1.6.3,2.9,1.7,2.5,6.3-1.7,12,0,17.5,3.1,4.6,2.5,4.9,4.5,1.2,8.1-1.8,1.8-1.6,4.6.7,5.3,1.1.3,2.8,0,3.7-.8,3-2.6,6.8-3.2,10.4-4.3,6.9-2.2,12.7-5.7,16.1-12.4,1-2.1,1.1-3.5-.9-4.8-2.5-1.7-5.2-3.3-8-4.2-3.3-1-4.9-2.6-5.3-6.1-.3-2.8-1.1-5.6-4.3-6.8-.5-.2-1-1.2-.9-1.7.2-1.5-.5-1.9-1.7-1.8-.9.1-1.7.7-2.6,1-.5.2-1.3.6-1.6.4-.4-.2-.7-1.1-.7-1.6.1-1,.5-1.9.9-2.8.3-.6,1-1.1,1.3-1.8.2-.5.2-1.2.2-1.8-.7,0-1.4-.3-2.1-.2-.6,0-1.1.5-1.6.9-1.9,1.4-3.7,3-5.6,4.4-6.9,5-13.8,10-21.2,15.4ZM260.5,188.4s0,0,0,0c.5.7,1,1.5,1.7,2,.6.4,1.4.5,2.1.8,0-.7.4-1.6.2-2.2-1-2.7-1.6-5.4-1.3-8.3.2-2.2-.6-3.8-2.6-4.8-1.4-.7-1.7-1.5-.5-2.8,1.8-2.1,1.5-2.7-1.3-3.2-3.3-.5-6.3.8-9.5,1.4-5.7,1.2-8.9,5.5-12.5,9.4-.9,1-.7,1.9.6,2.6.5.2,1,1.1.9,1.6-.6,2.2.7,2.1,2.1,1.9.8-.1,1.6-.4,2.3-.7,2.5-1,5-1.7,7.4.3,1.7,1.5,3.2,1.2,4.9-.2,1.5-1.3,2.8-1.2,4.2.3.6.6,1,1.3,1.4,2ZM281.1,172.8c0,0-.1.1-.2.2.8,1.1,1.5,2.3,2.4,3.3,1.2,1.3,2.9,1.1,4-.2.6-.8,1.4-1.5,2.2-2,1.4-.8,1.6-1.6.5-2.9-2.3-2.6-4.5-5.3-6.8-8-1-1.1-2.1-1.4-3.4-.6-1,.6-1.9,1.3-2.9,1.8-2.4,1.2-2.5,2.2-.5,4,1.6,1.4,3.1,2.9,4.7,4.4ZM190.5,257.4c.6.5,1.2,1,1.8,1.5.3.2.9.4,1,.3.3-.3.5-.8.5-1.2,0-.6-.3-1.2-.6-1.7-1.2-1.9-2.4-3.7-3.6-5.6-1-1.5-2-3.1-3.2-4.3-3.4-3.5-7-7-10.6-10.3-2.3-2.2-2.6-4.5-1.4-7.4.3-.7.1-2.1-.4-2.5-.7-.5-2-.6-2.8-.3-.5.2-1,1.5-.9,2.2.2,1.4.7,2.7,1.4,4,1,1.9,2,3.9,3.3,5.6,3.1,3.9,6.3,7.7,9.5,11.6,1.5,1.8,3.1,3.5,4.5,5.3.6.8.9,1.8,1.4,2.8ZM228.2,248.5c-.7.4-1.3.6-1.8,1-3.4,2.2-6.8,4.5-10.8,5.3-2.1.4-4.2.9-6.3,1.5-.4,0-.8.6-.8.9,0,.3.5.9.8.9,3.2.3,6.6,2.3,9.7-.4,0,0,.2-.1.4-.2,3.1-1.2,6.2-2.3,9.2-3.5.4-.2,1-.8.9-1.1-.3-1.4-.8-2.8-1.3-4.5ZM287.1,180.9c.5.5.9.8,1.2,1.2.5.7.9,2,1.4,2,.9,0,1.9-.5,2.7-1.1.9-.6,1.9-1.4,2.2-2.3.3-.9-.1-2.1-.5-3.1-.2-.4-1.5-.6-1.9-.3-1.7,1-3.3,2.3-5.1,3.6Z"></path><path d="M172.7,357.5c1.1,2.6,2.2,4.8,2.9,7.1.5,2,.6,4.1.5,6.2,0,1.3-.9,1.8-2.3,1.6-2.8-.4-3.6-1.2-3.9-4.1-.2-1.6-.2-3.2-.5-4.8-.1-.7-.6-1.7-1.2-1.8-2.4-.8-4.8-1.4-7.2-1.9-2.4-.5-4.8-.7-7.2-1.2-2.4-.5-3.4.1-3.6,2.6-.6,6.3-.8,12.7-1.6,19-.5,3.8-1.8,7.7-3.3,11.2-1.1,2.5-3.2,4.4-4.8,6.7-.5.7-.8,1.8-.7,2.6.3,3.2,2.7,5.6,5.7,6.4.6.2,1.3,1.1,1.4,1.7,0,1.8.9,2.3,2.6,2.1,6-.7,11.6-2.8,17-5.2,2-.9,3.8-2.1,5.8-2.8,1.1-.4,2.6-.4,3.6,0,1.2.7,1.2,2.2.6,3.6-.6,1.4-1.3,2.3-3,2.1-.9-.1-1.8-.2-2.6,0-.8.2-1.9.5-2.2,1.1-.9,1.9-2.6,2.6-4.3,3-5.3,1.3-10.1,3.4-14.3,7-2.3,2-4.9,2.8-7.9,1.4-.5-.2-1.5-.2-1.8.2-.3.3-.1,1.2,0,1.8,0,.3.1.6.1.6-3.1,1.4-6,2.8-9,3.9-1.7.6-2.5,1.7-2.1,3.1.9,2.9,2.2,5.6,3.5,8.3.3.6,1.5.8,2.2,1.3,1.5.9,3.2,1.6,4.3,2.8,4.3,4.5,9.3,6.8,15.4,5.9,2.5-.4,4.9-1.7,7.1-3,1.5-.8,3.8-1.1,5.1,0,.4.4.7,1.2.6,1.7-.4,1.5-.8,3-1.5,4.4-1.1,2.3-1.9,2.4-4.4,1.7-1-.3-2.4-.2-3.4.2-1.8.7-3.4,2-5.5,1.5-.5-.1-1.3.1-1.7.4-1.8,1.2-3.1.4-4.6-.6-4.8-3.5-9.9-6-15.9-6.6-3-.3-5.7-1-7.6-3.6-.2-.3-.5-.5-.8-.6-4.8-2.2-9.6-4.8-14.6-6.6-4.5-1.7-9.3-2.4-13.9-3.8-4.3-1.3-8.5-2.8-12.6-4.4-1.5-.6-3-1.6-4.2-2.7-2.7-2.4-1.6-5.6-.6-8.1,1.9-4.8,4-9.6,6.8-14.1,2.9-4.7,5.1-9.6,6.6-15,2.8-10.4,6.4-20.6,9.3-30.9,1.5-5.4,3-10.9,3.5-16.5.8-7.5,4.9-12.9,9.8-17.9,4.7-4.7,9.6-9.1,14.4-13.7,2.3-2.2,2.1-3.2-.1-5.4-.4-.4-.6-1.7-.3-2.2,1.9-3.2,1.9-3.2-.6-5.9-.2-.3-.3-.7-.4-1,.4,0,.8-.3,1.1-.2,1.7.7,2.3-.3,3.1-1.7,1-1.8,2.1-3.6,3.6-5,1.3-1.3,1.6-2.6,1.1-4.2-.3-1.2-.9-2.4-1.2-3.7-.1-.6,0-1.2,0-1.8.6.2,1.5,0,1.8.5,1,1.3,2,2.6,2.6,4.1,1.5,3.6,1.4,3.4,5.3,3.6,2.5,0,5.1.6,7.5,1.3,3.2,1,6.1.8,9.1-.4,3.5-1.3,4.8-.7,6.3,2.7.5,1.1,1.1,2.2,1.7,3.2.9,1.5.5,2.8-.3,4.2-1.7,2.9-3.4,5.8-4.9,8.9-.3.7,0,1.7,0,2.6,0,1.1.5,2.3.2,3.3-.6,2.6-1.3,5.1-2.1,7.6-.7,2.2-1.8,2.8-4,2.1-1.1-.4-2-1-3.1-1.4-.5-.2-1.3-.3-1.7,0-.4.3-.5,1.1-.4,1.6.1,3.3,2,5.6,4.2,7.8,1.9,1.8,3.7,3.7,5.7,5.5,1.5,1.3,1.7,2.8.8,4.5-1,2-.5,3.1,1.7,3.3,2.4.2,3.8,1.6,5.5,3,3.2,2.6,6.8,4.4,11.2,4.7,4.4.2,8.1-1.5,11.7-3.7.6-.4,1.2-.7,1.8-.8,2.2-.6,3.8.7,3.2,2.9-.4,1.5-1.2,2.8-2.1,4.1-.3.4-1.1.6-1.7.7-1.3.3-2.7.5-4.1.8-3.4.8-6.8,1.7-10.2,2.2-1.2.2-2.5-.8-3.8-1.2-.6-.2-1.3-.3-2.3-.5ZM92.3,397.9c2.6-1,3.4-.4,3.4,1.6,0,1.3.7,2.1,2.3,1.6,1.1-.4,1.8.2,2,1.3.1.6.2,1.2.3,1.8.5,1.6,1.9,2.2,2.8,1,4.1-5.1,9.7-7,15.9-7.8,5.2-.6,6.6.8,5.7,5.9-.4,2.5,1.5,4.7,3.7,3.9,1.1-.4,2.3-1.7,2.6-2.8.9-3.9,3.6-6.6,5.8-9.6,4.2-5.8,6.9-12.1,5.7-19.5-.4-2.3-1.2-3.4-3.5-3.4-3,.1-6.1.3-8.9,1.3-3.3,1.2-5.5.7-7.9-1.8-1.9-2-4.2-3.9-7.5-2.9-.5.1-1.5-.4-1.7-.8-.7-1.3-1.6-1.3-2.4-.5-.6.6-1,1.5-1.5,2.3-.3.5-.7,1.2-1,1.3-.5,0-1.2-.4-1.4-.9-.5-.9-.7-1.9-.9-2.8-.1-.7.1-1.5,0-2.2-.1-.6-.6-1.1-.9-1.6-.6.4-1.3.6-1.8,1.1-.4.4-.6,1.1-.7,1.7-.7,2.3-1.3,4.6-2,6.8-2.6,8.1-5.3,16.2-8.1,25ZM130,339.6s0,0,0,0c.8.2,1.7.6,2.5.6.7,0,1.4-.4,2.1-.6-.4-.6-.6-1.5-1.1-1.9-2.4-1.6-4.5-3.4-5.9-5.9-1.1-2-2.7-2.7-4.9-2.4-1.6.2-2.2-.2-2.1-2,.2-2.8-.4-3.1-3-1.8-3,1.5-4.7,4.4-6.8,6.7-4,4.3-4,9.7-4.6,15-.2,1.3.5,2,2,1.7.5,0,1.5.3,1.6.7.8,2.1,1.8,1.3,2.9.3.6-.6,1-1.2,1.4-1.9,1.4-2.3,3-4.4,6.2-4.1,2.3.2,3.3-.9,3.8-3,.4-2,1.6-2.6,3.6-2.3.8.1,1.5.5,2.3.7ZM137.5,314.9c0,0,0,.2,0,.3,1.3.4,2.5.9,3.9,1.2,1.7.4,3-.8,3.1-2.5,0-1,.2-2,.6-2.9.7-1.5.3-2.3-1.3-2.6-3.4-.8-6.8-1.7-10.2-2.5-1.4-.3-2.5.1-3.1,1.6-.4,1.1-.8,2.2-1.3,3.2-1.2,2.4-.7,3.3,1.9,3.5,2.1.2,4.2.5,6.3.8ZM114,436.6c.7,0,1.5.2,2.4.1.4,0,1-.2,1-.4,0-.4,0-1-.3-1.3-.4-.4-.9-.8-1.5-1.1-2-.8-4.1-1.6-6.2-2.4-1.7-.6-3.4-1.3-5.2-1.6-4.9-.8-9.7-1.5-14.6-2.2-3.1-.4-4.8-2.1-5.5-5.1-.2-.7-1.1-1.8-1.8-1.8-.8,0-1.9.7-2.4,1.4-.3.5,0,1.8.6,2.3,1,1,2.2,1.8,3.4,2.4,1.9,1,3.9,2,5.9,2.6,4.8,1.4,9.6,2.6,14.5,3.8,2.3.6,4.6,1,6.8,1.7,1,.3,1.8.9,2.8,1.4ZM139.3,407.2c-.3.7-.7,1.3-.9,1.8-1.4,3.8-2.8,7.6-5.6,10.7-1.4,1.6-2.9,3.2-4.2,4.9-.2.3-.3,1-.1,1.2.2.3.9.4,1.2.3,2.8-1.7,6.7-2,7.6-6,0-.1.1-.2.2-.4,1.8-2.8,3.6-5.5,5.4-8.3.2-.4.3-1.2.1-1.4-1.1-1-2.3-1.8-3.7-2.9ZM147.2,317.9c.7.1,1.2.1,1.6.3.8.3,1.9,1.1,2.3.8.8-.5,1.2-1.6,1.6-2.5.3-1,.7-2.2.4-3.1-.3-.9-1.3-1.7-2.2-2.2-.3-.2-1.5.4-1.7.8-.8,1.8-1.3,3.8-2,5.9Z"></path><path d="M158.1,528.6c2.4,1.5,4.6,2.6,6.5,4.1,1.6,1.3,2.9,3,4.1,4.7.7,1,.3,2-.9,2.6-2.5,1.3-3.6,1.1-5.5-1-1.1-1.2-2.1-2.5-3.3-3.6-.5-.5-1.5-1-2-.8-2.4.8-4.7,1.7-6.9,2.7-2.2,1-4.3,2.2-6.5,3.3-2.2,1.1-2.7,2.1-1.4,4.2,3.3,5.4,6.9,10.7,9.8,16.3,1.8,3.4,3.1,7.2,3.9,11,.6,2.6,0,5.5,0,8.2,0,.9.4,1.9,1,2.5,2.1,2.4,5.4,2.9,8.4,1.9.6-.2,1.7.1,2.1.6,1.1,1.4,2.1,1.4,3.3.2,4.4-4.1,7.7-9,10.7-14.2,1.1-1.9,1.9-3.9,3.1-5.7.6-.9,1.9-1.9,2.9-2,1.4-.2,2.3,1.1,2.7,2.6.4,1.5.3,2.6-1.2,3.4-.8.4-1.6.9-2.2,1.5-.5.6-1.2,1.5-1.1,2.2.3,2.1-.5,3.6-1.7,5-3.5,4.1-6.1,8.7-7.4,14-.7,2.9-2.3,5.1-5.6,5.8-.6.1-1.3.7-1.4,1.2,0,.4.6,1,1,1.5.2.3.5.4.4.4-1.7,2.9-3.2,5.8-5,8.5-1.1,1.5-1,2.9.2,3.8,2.4,1.8,5.1,3.3,7.7,4.7.6.3,1.7-.2,2.6-.2,1.7-.1,3.5-.6,5.2-.3,6.1,1.1,11.5,0,15.9-4.3,1.8-1.8,2.9-4.3,4-6.6.7-1.6,2.4-3.2,4.1-2.9.6,0,1.3.6,1.5,1.1.6,1.4,1.1,2.9,1.4,4.4.5,2.5-.1,3.1-2.5,4-1,.4-2,1.2-2.6,2.2-1,1.6-1.6,3.6-3.6,4.4-.5.2-.9.8-1.1,1.4-.7,2-2.3,2.2-4.1,2.2-5.9,0-11.6,1-16.7,4.1-2.6,1.6-5.2,2.6-8.3,1.6-.3,0-.7,0-1,0-5.2,1-10.5,1.8-15.7,3.2-4.6,1.3-8.9,3.5-13.5,5.1-4.2,1.5-8.5,2.7-12.8,3.9-1.6.4-3.4.5-5,.3-3.6-.4-4.6-3.6-5.3-6.2-1.3-5-2.4-10.2-2.8-15.3-.4-5.5-1.5-10.7-3.5-16-3.8-10.1-6.9-20.4-10.6-30.5-1.9-5.3-4-10.6-6.8-15.4-3.8-6.5-3.7-13.3-2.6-20.3,1-6.5,2.4-13,3.6-19.5.6-3.1-.2-3.9-3.3-4.2-.6,0-1.5-1-1.5-1.6-.4-3.7-.4-3.7-4-4.5-.3,0-.6-.4-.9-.6.2-.3.4-.7.7-.8,1.8-.5,1.7-1.6,1.5-3.1-.3-2-.4-4.1,0-6.1.3-1.8-.3-3-1.5-4.1-1-.8-2.1-1.4-3.1-2.3-.4-.4-.7-1-1-1.5.6-.2,1.3-.8,1.8-.7,1.5.4,3.1,1,4.5,1.8,3.3,2,3.2,2,6.4-.2,2.1-1.4,4.5-2.6,6.9-3.4,3.1-1,5.4-3,7.2-5.6,2-3.1,3.4-3.4,6.7-1.5,1,.6,2.2,1.2,3.3,1.6,1.6.7,2.1,1.9,2.2,3.5.3,3.4.7,6.7,1.2,10,.1.7,1,1.4,1.6,2,.7.9,1.7,1.6,2.1,2.5,1.1,2.4,1.9,4.9,2.8,7.4.7,2.2.2,3.3-2,4-1.1.3-2.3.4-3.4.7-.5.1-1.2.6-1.4,1-.1.4.3,1.1.6,1.5,2,2.6,4.9,3.4,8,3.8,2.6.3,5.2.8,7.8,1.1,2,.2,3,1.2,3.3,3.2.4,2.2,1.4,2.8,3.4,1.7,2-1.2,4-1,6.2-.8,4.1.3,8.1-.4,11.8-2.8,3.7-2.4,5.7-6,7.3-9.9.3-.6.6-1.2,1-1.8,1.4-1.8,3.4-1.7,4.2.5.5,1.4.6,3,.7,4.5,0,.5-.6,1.1-1,1.6-.9,1.1-1.9,2-2.8,3.1-2.3,2.6-4.5,5.4-7,7.8-.9.8-2.5.8-3.8,1.3-.6.2-1.2.6-2.1,1ZM116.7,608.5c1.5-2.4,2.5-2.4,3.7-.7.7,1,1.8,1.3,2.8,0,.7-1,1.6-.9,2.4-.1.4.4.9.9,1.3,1.2,1.3,1,2.8.6,2.9-.8.3-6.6,3.8-11.4,8.3-15.7,3.8-3.6,5.8-3.2,8.1,1.4,1.1,2.3,3.9,2.9,5.2,1,.6-1,.9-2.7.4-3.8-1.5-3.7-.9-7.5-.9-11.2,0-7.2-1.5-13.8-6.8-19.1-1.6-1.6-3-2.1-4.8-.6-2.4,1.8-4.8,3.9-6.4,6.3-2,2.9-4,3.8-7.4,3.2-2.7-.5-5.7-.7-7.8,2-.3.4-1.4.6-1.9.3-1.3-.7-2-.1-2.2,1.1-.2.9,0,1.8.1,2.7,0,.6.2,1.4-.1,1.6-.3.3-1.2.4-1.7.1-.9-.4-1.7-1.1-2.4-1.8-.5-.5-.8-1.3-1.3-1.8-.4-.4-1.1-.5-1.7-.8-.3.7-.7,1.3-.8,2,0,.6.2,1.2.4,1.8.8,2.2,1.7,4.4,2.4,6.7,2.7,8.1,5.3,16.2,8.1,24.9ZM113,539.2s0,0,0,0c.8-.3,1.7-.5,2.4-1,.6-.4.9-1.1,1.4-1.7-.7-.3-1.4-.9-2-.8-2.9.2-5.7-.1-8.3-1.3-2.1-.9-3.8-.6-5.4.9-1.1,1.1-1.9,1.1-2.9-.4-1.5-2.4-2.1-2.3-3.5.3-1.5,3-1.2,6.3-1.6,9.5-.7,5.8,2.5,10.2,5.1,14.8.6,1.1,1.6,1.3,2.6.2.4-.4,1.4-.6,1.8-.4,1.9,1.2,2.3,0,2.5-1.4.1-.8,0-1.6,0-2.4-.2-2.7-.1-5.3,2.6-6.9,2-1.2,2.1-2.7,1.3-4.7-.8-1.8-.3-3,1.6-3.9.7-.3,1.5-.5,2.3-.8ZM104.6,514.8c0,0,0,.2.1.2,1.3-.4,2.6-.7,3.8-1.3,1.6-.7,1.9-2.4,1-3.9-.5-.8-1-1.8-1.2-2.7-.3-1.6-1.1-2-2.6-1.4-3.2,1.3-6.5,2.6-9.7,4-1.4.6-2,1.6-1.6,3.1.3,1.1.6,2.2.8,3.3.4,2.6,1.3,3.1,3.6,1.7,1.8-1.1,3.7-2.1,5.6-3.1ZM157,627c.6-.4,1.3-.8,2-1.3.3-.2.7-.7.6-.9-.2-.4-.6-.8-1-.8-.6-.1-1.2-.1-1.8,0-2.1.5-4.3,1.1-6.4,1.7-1.7.5-3.5.9-5.1,1.7-4.4,2.2-8.8,4.5-13.1,6.8-2.8,1.5-5.1,1.1-7.4-.9-.6-.5-2-.8-2.5-.4-.7.5-1.2,1.7-1.1,2.5,0,.6,1.1,1.4,1.8,1.5,1.4.2,2.8.1,4.2,0,2.1-.3,4.3-.7,6.3-1.4,4.7-1.7,9.3-3.6,13.9-5.4,2.2-.9,4.3-1.9,6.5-2.7.9-.3,2-.3,3.1-.5ZM160.2,588.4c.1.8.2,1.4.4,2,1.1,3.9,2.2,7.8,1.7,11.9-.2,2.1-.4,4.3-.5,6.4,0,.4.3,1,.6,1.1.3,0,1-.2,1.1-.5,1.3-3,4.3-5.5,2.6-9.4,0-.1,0-.3,0-.4-.2-3.3-.3-6.6-.5-9.9,0-.4-.4-1.2-.7-1.2-1.4-.2-2.9-.1-4.6-.2ZM114.1,511.5c.7-.3,1.1-.6,1.5-.7.8-.3,2.2-.3,2.3-.7.3-.8,0-2-.2-2.9-.3-1-.7-2.2-1.5-2.8-.8-.6-2.1-.6-3.1-.5-.4,0-1,1.2-.9,1.7.5,1.9,1.2,3.8,1.9,5.9Z"></path><path d="M683.9,572.9c-1.1-2.6-2.2-4.8-2.9-7.1-.5-2-.6-4.1-.5-6.2,0-1.3.9-1.8,2.3-1.6,2.8.4,3.6,1.2,3.9,4.1.2,1.6.2,3.2.5,4.8.1.7.6,1.7,1.2,1.8,2.4.8,4.8,1.4,7.2,1.9,2.4.5,4.8.7,7.2,1.2,2.4.5,3.4-.1,3.6-2.6.6-6.3.8-12.7,1.6-19,.5-3.8,1.8-7.7,3.3-11.2,1.1-2.5,3.2-4.4,4.8-6.7.5-.7.8-1.8.7-2.6-.3-3.2-2.7-5.6-5.7-6.4-.6-.2-1.3-1.1-1.4-1.7,0-1.8-.9-2.3-2.6-2.1-6,.7-11.6,2.8-17,5.2-2,.9-3.8,2.1-5.8,2.8-1.1.4-2.6.4-3.6,0-1.2-.7-1.2-2.2-.6-3.6.6-1.4,1.3-2.3,3-2.1.9.1,1.8.2,2.6,0,.8-.2,1.9-.5,2.2-1.1.9-1.9,2.6-2.6,4.3-3,5.3-1.3,10.1-3.4,14.3-7,2.3-2,4.9-2.8,7.9-1.4.5.2,1.5.2,1.8-.2.3-.3.1-1.2,0-1.8,0-.3-.1-.6-.1-.6,3.1-1.4,6-2.8,9-3.9,1.7-.6,2.5-1.7,2.1-3.1-.9-2.9-2.2-5.6-3.5-8.3-.3-.6-1.5-.8-2.2-1.3-1.5-.9-3.2-1.6-4.3-2.8-4.3-4.5-9.3-6.8-15.4-5.9-2.5.4-4.9,1.7-7.1,3-1.5.8-3.8,1.1-5.1,0-.4-.4-.7-1.2-.6-1.7.4-1.5.8-3,1.5-4.4,1.1-2.3,1.9-2.4,4.4-1.7,1,.3,2.4.2,3.4-.2,1.8-.7,3.4-2,5.5-1.5.5.1,1.3-.1,1.7-.4,1.8-1.2,3.1-.4,4.6.6,4.8,3.5,9.9,6,15.9,6.6,3,.3,5.7,1,7.6,3.6.2.3.5.5.8.6,4.8,2.2,9.6,4.8,14.6,6.6,4.5,1.7,9.3,2.4,13.9,3.8,4.3,1.3,8.5,2.8,12.6,4.4,1.5.6,3,1.6,4.2,2.7,2.7,2.4,1.6,5.6.6,8.1-1.9,4.8-4,9.6-6.8,14.1-2.9,4.7-5.1,9.6-6.6,15-2.8,10.4-6.4,20.6-9.3,30.9-1.5,5.4-3,10.9-3.5,16.5-.8,7.5-4.9,12.9-9.8,17.9-4.7,4.7-9.6,9.1-14.4,13.7-2.3,2.2-2.1,3.2.1,5.4.4.4.6,1.7.3,2.2-1.9,3.2-1.9,3.2.6,5.9.2.3.3.7.4,1-.4,0-.8.3-1.1.2-1.7-.7-2.3.3-3.1,1.7-1,1.8-2.1,3.6-3.6,5-1.3,1.3-1.6,2.6-1.1,4.2.3,1.2.9,2.4,1.2,3.7.1.6,0,1.2,0,1.8-.6-.2-1.5,0-1.8-.5-1-1.3-2-2.6-2.6-4.1-1.5-3.6-1.4-3.4-5.3-3.6-2.5,0-5.1-.6-7.5-1.3-3.2-1-6.1-.8-9.1.4-3.5,1.3-4.8.7-6.3-2.7-.5-1.1-1.1-2.2-1.7-3.2-.9-1.5-.5-2.8.3-4.2,1.7-2.9,3.4-5.8,4.9-8.9.3-.7,0-1.7,0-2.6,0-1.1-.5-2.3-.2-3.3.6-2.6,1.3-5.1,2.1-7.6.7-2.2,1.8-2.8,4-2.1,1.1.4,2,1,3.1,1.4.5.2,1.3.3,1.7,0,.4-.3.5-1.1.4-1.6-.1-3.3-2-5.6-4.2-7.8-1.9-1.8-3.7-3.7-5.7-5.5-1.5-1.3-1.7-2.8-.8-4.5,1-2,.5-3.1-1.7-3.3-2.4-.2-3.8-1.6-5.5-3-3.2-2.6-6.8-4.4-11.2-4.7-4.4-.2-8.1,1.5-11.7,3.7-.6.4-1.2.7-1.8.8-2.2.6-3.8-.7-3.2-2.9.4-1.5,1.2-2.8,2.1-4.1.3-.4,1.1-.6,1.7-.7,1.3-.3,2.7-.5,4.1-.8,3.4-.8,6.8-1.7,10.2-2.2,1.2-.2,2.5.8,3.8,1.2.6.2,1.3.3,2.3.5ZM764.4,532.5c-2.6,1-3.4.4-3.4-1.6,0-1.3-.7-2.1-2.3-1.6-1.1.4-1.8-.2-2-1.3-.1-.6-.2-1.2-.3-1.8-.5-1.6-1.9-2.2-2.8-1-4.1,5.1-9.7,7-15.9,7.8-5.2.6-6.6-.8-5.7-5.9.4-2.5-1.5-4.7-3.7-3.9-1.1.4-2.3,1.7-2.6,2.8-.9,3.9-3.6,6.6-5.8,9.6-4.2,5.8-6.9,12.1-5.7,19.5.4,2.3,1.2,3.4,3.5,3.4,3-.1,6.1-.3,8.9-1.3,3.3-1.2,5.5-.7,7.9,1.8,1.9,2,4.2,3.9,7.5,2.9.5-.1,1.5.4,1.7.8.7,1.3,1.6,1.3,2.4.5.6-.6,1-1.5,1.5-2.3.3-.5.7-1.2,1-1.3.5,0,1.2.4,1.4.9.5.9.7,1.9.9,2.8.1.7-.1,1.5,0,2.2.1.6.6,1.1.9,1.6.6-.4,1.3-.6,1.8-1.1.4-.4.6-1.1.7-1.7.7-2.3,1.3-4.6,2-6.8,2.6-8.1,5.3-16.2,8.1-25ZM726.6,590.8s0,0,0,0c-.8-.2-1.7-.6-2.5-.6-.7,0-1.4.4-2.1.6.4.6.6,1.5,1.1,1.9,2.4,1.6,4.5,3.4,5.9,5.9,1.1,2,2.7,2.7,4.9,2.4,1.6-.2,2.2.2,2.1,2-.2,2.8.4,3.1,3,1.8,3-1.5,4.7-4.4,6.8-6.7,4-4.3,4-9.7,4.6-15,.2-1.3-.5-2-2-1.7-.5,0-1.5-.3-1.6-.7-.8-2.1-1.8-1.3-2.9-.3-.6.6-1,1.2-1.4,1.9-1.4,2.3-3,4.4-6.2,4.1-2.3-.2-3.3.9-3.8,3-.4,2-1.6,2.6-3.6,2.3-.8-.1-1.5-.5-2.3-.7ZM719.1,615.5c0,0,0-.2,0-.3-1.3-.4-2.5-.9-3.9-1.2-1.7-.4-3,.8-3.1,2.5,0,1-.2,2-.6,2.9-.7,1.5-.3,2.3,1.3,2.6,3.4.8,6.8,1.7,10.2,2.5,1.4.3,2.5-.1,3.1-1.6.4-1.1.8-2.2,1.3-3.2,1.2-2.4.7-3.3-1.9-3.5-2.1-.2-4.2-.5-6.3-.8ZM742.7,493.9c-.7,0-1.5-.2-2.4-.1-.4,0-1,.2-1,.4,0,.4,0,1,.3,1.3.4.4.9.8,1.5,1.1,2,.8,4.1,1.6,6.2,2.4,1.7.6,3.4,1.3,5.2,1.6,4.9.8,9.7,1.5,14.6,2.2,3.1.4,4.8,2.1,5.5,5.1.2.7,1.1,1.8,1.8,1.8.8,0,1.9-.7,2.4-1.4.3-.5,0-1.8-.6-2.3-1-1-2.2-1.8-3.4-2.4-1.9-1-3.9-2-5.9-2.6-4.8-1.4-9.6-2.6-14.5-3.8-2.3-.6-4.6-1-6.8-1.7-1-.3-1.8-.9-2.8-1.4ZM717.4,523.3c.3-.7.7-1.3.9-1.8,1.4-3.8,2.8-7.6,5.6-10.7,1.4-1.6,2.9-3.2,4.2-4.9.2-.3.3-1,.1-1.2-.2-.3-.9-.4-1.2-.3-2.8,1.7-6.7,2-7.6,6,0,.1-.1.2-.2.4-1.8,2.8-3.6,5.5-5.4,8.3-.2.4-.3,1.2-.1,1.4,1.1,1,2.3,1.8,3.7,2.9ZM709.5,612.5c-.7-.1-1.2-.1-1.6-.3-.8-.3-1.9-1.1-2.3-.8-.8.5-1.2,1.6-1.6,2.5-.3,1-.7,2.2-.4,3.1.3.9,1.3,1.7,2.2,2.2.3.2,1.5-.4,1.7-.8.8-1.8,1.3-3.8,2-5.9Z"></path><path d="M699.6,407.9c-2.4-1.5-4.6-2.6-6.5-4.1-1.6-1.3-2.9-3-4.1-4.7-.7-1-.3-2,.9-2.6,2.5-1.3,3.6-1.1,5.5,1,1.1,1.2,2.1,2.5,3.3,3.6.5.5,1.5,1,2,.8,2.4-.8,4.7-1.7,6.9-2.7,2.2-1,4.3-2.2,6.5-3.3,2.2-1.1,2.7-2.1,1.4-4.2-3.3-5.4-6.9-10.7-9.8-16.3-1.8-3.4-3.1-7.2-3.9-11-.6-2.6,0-5.5,0-8.2,0-.9-.4-1.9-1-2.5-2.1-2.4-5.4-2.9-8.4-1.9-.6.2-1.7-.1-2.1-.6-1.1-1.4-2.1-1.4-3.3-.2-4.4,4.1-7.7,9-10.7,14.2-1.1,1.9-1.9,3.9-3.1,5.7-.6.9-1.9,1.9-2.9,2-1.4.2-2.3-1.1-2.7-2.6-.4-1.5-.3-2.6,1.2-3.4.8-.4,1.6-.9,2.2-1.5.5-.6,1.2-1.5,1.1-2.2-.3-2.1.5-3.6,1.7-5,3.5-4.1,6.1-8.7,7.4-14,.7-2.9,2.3-5.1,5.6-5.8.6-.1,1.3-.7,1.4-1.2,0-.4-.6-1-1-1.5-.2-.3-.5-.4-.4-.4,1.7-2.9,3.2-5.8,5-8.5,1.1-1.5,1-2.9-.2-3.8-2.4-1.8-5.1-3.3-7.7-4.7-.6-.3-1.7.2-2.6.2-1.7.1-3.5.6-5.2.3-6.1-1.1-11.5,0-15.9,4.3-1.8,1.8-2.9,4.3-4,6.6-.7,1.6-2.4,3.2-4.1,2.9-.6,0-1.3-.6-1.5-1.1-.6-1.4-1.1-2.9-1.4-4.4-.5-2.5.1-3.1,2.5-4,1-.4,2-1.2,2.6-2.2,1-1.6,1.6-3.6,3.6-4.4.5-.2.9-.8,1.1-1.4.7-2,2.3-2.2,4.1-2.2,5.9,0,11.6-1,16.7-4.1,2.6-1.6,5.2-2.6,8.3-1.6.3,0,.7,0,1,0,5.2-1,10.5-1.8,15.7-3.2,4.6-1.3,8.9-3.5,13.5-5.1,4.2-1.5,8.5-2.7,12.8-3.9,1.6-.4,3.4-.5,5-.3,3.6.4,4.6,3.6,5.3,6.2,1.3,5,2.4,10.2,2.8,15.3.4,5.5,1.5,10.7,3.5,16,3.8,10.1,6.9,20.4,10.6,30.5,1.9,5.3,4,10.6,6.8,15.4,3.8,6.5,3.7,13.3,2.6,20.3-1,6.5-2.4,13-3.6,19.5-.6,3.1.2,3.9,3.3,4.2.6,0,1.5,1,1.5,1.6.4,3.7.4,3.7,4,4.5.3,0,.6.4.9.6-.2.3-.4.7-.7.8-1.8.5-1.7,1.6-1.5,3.1.3,2,.4,4.1,0,6.1-.3,1.8.3,3,1.5,4.1,1,.8,2.1,1.4,3.1,2.3.4.4.7,1,1,1.5-.6.2-1.3.8-1.8.7-1.5-.4-3.1-1-4.5-1.8-3.3-2-3.2-2-6.4.2-2.1,1.4-4.5,2.6-6.9,3.4-3.1,1-5.4,3-7.2,5.6-2,3.1-3.4,3.4-6.7,1.5-1-.6-2.2-1.2-3.3-1.6-1.6-.7-2.1-1.9-2.2-3.5-.3-3.4-.7-6.7-1.2-10-.1-.7-1-1.4-1.6-2-.7-.9-1.7-1.6-2.1-2.5-1.1-2.4-1.9-4.9-2.8-7.4-.7-2.2-.2-3.3,2-4,1.1-.3,2.3-.4,3.4-.7.5-.1,1.2-.6,1.4-1,.1-.4-.3-1.1-.6-1.5-2-2.6-4.9-3.4-8-3.8-2.6-.3-5.2-.8-7.8-1.1-2-.2-3-1.2-3.3-3.2-.4-2.2-1.4-2.8-3.4-1.7-2,1.2-4,1-6.2.8-4.1-.3-8.1.4-11.8,2.8-3.7,2.4-5.7,6-7.3,9.9-.3.6-.6,1.2-1,1.8-1.4,1.8-3.4,1.7-4.2-.5-.5-1.4-.6-3-.7-4.5,0-.5.6-1.1,1-1.6.9-1.1,1.9-2,2.8-3.1,2.3-2.6,4.5-5.4,7-7.8.9-.8,2.5-.8,3.8-1.3.6-.2,1.2-.6,2.1-1ZM741,327.9c-1.5,2.4-2.5,2.4-3.7.7-.7-1-1.8-1.3-2.8,0-.7,1-1.6.9-2.4.1-.4-.4-.9-.9-1.3-1.2-1.3-1-2.8-.6-2.9.8-.3,6.6-3.8,11.4-8.3,15.7-3.8,3.6-5.8,3.2-8.1-1.4-1.1-2.3-3.9-2.9-5.2-1-.6,1-.9,2.7-.4,3.8,1.5,3.7.9,7.5.9,11.2,0,7.2,1.5,13.8,6.8,19.1,1.6,1.6,3,2.1,4.8.6,2.4-1.8,4.8-3.9,6.4-6.3,2-2.9,4-3.8,7.4-3.2,2.7.5,5.7.7,7.8-2,.3-.4,1.4-.6,1.9-.3,1.3.7,2,.1,2.2-1.1.2-.9,0-1.8-.1-2.7,0-.6-.2-1.4.1-1.6.3-.3,1.2-.4,1.7-.1.9.4,1.7,1.1,2.4,1.8.5.5.8,1.3,1.3,1.8.4.4,1.1.5,1.7.8.3-.7.7-1.3.8-2,0-.6-.2-1.2-.4-1.8-.8-2.2-1.7-4.4-2.4-6.7-2.7-8.1-5.3-16.2-8.1-24.9ZM744.7,397.2s0,0,0,0c-.8.3-1.7.5-2.4,1-.6.4-.9,1.1-1.4,1.7.7.3,1.4.9,2,.8,2.9-.2,5.7.1,8.3,1.3,2.1.9,3.8.6,5.4-.9,1.1-1.1,1.9-1.1,2.9.4,1.5,2.4,2.1,2.3,3.5-.3,1.5-3,1.2-6.3,1.6-9.5.7-5.8-2.5-10.2-5.1-14.8-.6-1.1-1.6-1.3-2.6-.2-.4.4-1.4.6-1.8.4-1.9-1.2-2.3,0-2.5,1.4-.1.8,0,1.6,0,2.4.2,2.7.1,5.3-2.6,6.9-2,1.2-2.1,2.7-1.3,4.7.8,1.8.3,3-1.6,3.9-.7.3-1.5.5-2.3.8ZM753.1,421.7c0,0,0-.2-.1-.2-1.3.4-2.6.7-3.8,1.3-1.6.7-1.9,2.4-1,3.9.5.8,1,1.8,1.2,2.7.3,1.6,1.1,2,2.6,1.4,3.2-1.3,6.5-2.6,9.7-4,1.4-.6,2-1.6,1.6-3.1-.3-1.1-.6-2.2-.8-3.3-.4-2.6-1.3-3.1-3.6-1.7-1.8,1.1-3.7,2.1-5.6,3.1ZM700.7,309.4c-.6.4-1.3.8-2,1.3-.3.2-.7.7-.6.9.2.4.6.8,1,.8.6.1,1.2.1,1.8,0,2.1-.5,4.3-1.1,6.4-1.7,1.7-.5,3.5-.9,5.1-1.7,4.4-2.2,8.8-4.5,13.1-6.8,2.8-1.5,5.1-1.1,7.4.9.6.5,2,.8,2.5.4.7-.5,1.2-1.7,1.1-2.5,0-.6-1.1-1.4-1.8-1.5-1.4-.2-2.8-.1-4.2,0-2.1.3-4.3.7-6.3,1.4-4.7,1.7-9.3,3.6-13.9,5.4-2.2.9-4.3,1.9-6.5,2.7-.9.3-2,.3-3.1.5ZM697.5,348c-.1-.8-.2-1.4-.4-2-1.1-3.9-2.2-7.8-1.7-11.9.2-2.1.4-4.3.5-6.4,0-.4-.3-1-.6-1.1-.3,0-1,.2-1.1.5-1.3,3-4.3,5.5-2.6,9.4,0,.1,0,.3,0,.4.2,3.3.3,6.6.5,9.9,0,.4.4,1.2.7,1.2,1.4.2,2.9.1,4.6.2ZM743.6,424.9c-.7.3-1.1.6-1.5.7-.8.3-2.2.3-2.3.7-.3.8,0,2,.2,2.9.3,1,.7,2.2,1.5,2.8.8.6,2.1.6,3.1.5.4,0,1-1.2.9-1.7-.5-1.9-1.2-3.8-1.9-5.9Z"></path><path d="M611.7,259.1c-2.8.2-5.3.7-7.6.5-2-.1-4.1-.7-6-1.4-1.2-.4-1.4-1.4-.8-2.7,1.3-2.5,2.3-3,5.1-2.4,1.6.3,3.1.8,4.7,1,.7,0,1.8,0,2.1-.6,1.5-2,2.8-4.1,4-6.3,1.2-2.1,2.2-4.4,3.3-6.5,1.2-2.2.9-3.3-1.3-4.3-5.9-2.5-11.9-4.6-17.5-7.4-3.5-1.7-6.7-4.1-9.7-6.6-2-1.8-3.2-4.4-4.9-6.6-.5-.7-1.4-1.3-2.3-1.4-3.1-.6-6.1.8-7.9,3.4-.4.5-1.5.9-2.1.8-1.8-.5-2.5.1-2.8,1.8-1.2,5.9-.9,11.9-.3,17.8.2,2.2.8,4.3.9,6.4,0,1.1-.4,2.6-1.2,3.4-1.1,1-2.5.5-3.7-.5-1.2-1-1.8-1.9-1.1-3.5.4-.8.8-1.6.9-2.5,0-.8.1-2-.4-2.4-1.5-1.5-1.7-3.2-1.5-5.1.4-5.4-.2-10.6-2.3-15.7-1.1-2.8-1.1-5.5,1.1-8,.4-.4.6-1.4.4-1.8-.2-.4-1.1-.5-1.7-.7-.3,0-.6,0-.6,0-.3-3.4-.8-6.6-.9-9.8,0-1.8-.8-2.9-2.3-2.9-3,0-6,.3-9,.8-.7.1-1.3,1.1-1.9,1.7-1.3,1.1-2.5,2.5-4,3.3-5.6,2.7-9.4,6.7-10.3,12.9-.4,2.5.1,5.2.6,7.7.3,1.7,0,4-1.6,4.8-.5.3-1.4.3-1.8,0-1.3-.8-2.6-1.7-3.7-2.8-1.8-1.7-1.7-2.6-.3-4.7.6-.9.9-2.2.8-3.3-.1-1.9-.8-3.8.3-5.7.3-.5.3-1.2.1-1.8-.6-2.1.6-3.1,2-4.1,4.8-3.5,8.8-7.6,11.2-13.1,1.2-2.8,2.7-5.1,5.8-6.1.3,0,.6-.3.8-.6,3.6-3.9,7.5-7.6,10.8-11.8,3-3.8,5.2-8.1,7.9-12,2.6-3.7,5.3-7.2,8.1-10.7,1-1.3,2.5-2.4,3.9-3.2,3.1-1.8,5.8.2,7.9,1.9,4,3.3,7.9,6.8,11.3,10.8,3.6,4.2,7.5,7.8,12.2,10.9,9,5.9,17.6,12.4,26.5,18.4,4.6,3.1,9.5,6.2,14.6,8.4,6.9,3.1,10.8,8.6,14,14.9,3,5.9,5.7,12,8.6,17.9,1.4,2.9,2.4,3,5.1,1.5.5-.3,1.8,0,2.2.4,2.5,2.8,2.5,2.8,5.8,1.3.3-.1.7,0,1.1,0,0,.4,0,.9-.1,1.1-1.2,1.4-.4,2.3.6,3.4,1.4,1.5,2.7,3.1,3.6,4.9.8,1.7,2,2.3,3.6,2.4,1.3,0,2.6,0,3.9,0,.6,0,1.1.4,1.7.6-.3.5-.6,1.4-1,1.6-1.5.6-3.1,1.1-4.7,1.2-3.9.3-3.7.3-5,3.9-.9,2.4-2.1,4.7-3.6,6.8-1.9,2.7-2.6,5.6-2.5,8.8.2,3.7-.8,4.8-4.6,5.1-1.2.1-2.4.3-3.6.6-1.7.4-2.8-.3-3.9-1.6-2.2-2.5-4.5-5-6.9-7.4-.5-.5-1.6-.5-2.5-.7-1.1-.3-2.3-.3-3.2-.8-2.3-1.3-4.4-2.9-6.6-4.4-1.9-1.3-2.1-2.6-.7-4.5.7-.9,1.6-1.6,2.3-2.5.3-.4.7-1.2.5-1.6-.1-.4-.9-.8-1.4-.9-3.2-.9-6,.1-8.7,1.6-2.3,1.3-4.7,2.4-7,3.7-1.7,1-3.2.8-4.6-.6-1.6-1.6-2.8-1.4-3.7.6-.9,2.2-2.7,3.2-4.6,4.3-3.5,2.2-6.3,5.1-7.9,9.2-1.6,4.2-1.1,8.2-.1,12.3.2.7.3,1.3.2,2,0,2.3-1.8,3.4-3.7,2.1-1.3-.8-2.3-2.1-3.3-3.2-.3-.4-.2-1.2-.2-1.9.1-1.4.3-2.8.5-4.1.3-3.5.5-7,1.1-10.4.2-1.2,1.5-2.1,2.3-3.2.4-.6.7-1.2,1.1-2.1ZM598.2,170.1c.2,2.8-.6,3.4-2.6,2.7-1.2-.4-2.3,0-2.2,1.7,0,1.2-.7,1.7-1.9,1.5-.6,0-1.2-.2-1.8-.2-1.7,0-2.7,1.1-1.9,2.4,3.6,5.5,3.7,11.4,2.5,17.6-1,5.1-2.8,6-7.4,3.6-2.2-1.2-4.9,0-4.8,2.3,0,1.1.9,2.7,1.9,3.3,3.4,2.1,5.1,5.5,7.3,8.5,4.2,5.8,9.3,10.3,16.7,11.5,2.3.4,3.6,0,4.3-2.3.8-2.9,1.6-5.9,1.5-8.9-.1-3.5,1-5.5,4.2-6.9,2.5-1.2,5-2.8,5.1-6.2,0-.5.8-1.3,1.3-1.4,1.5-.2,1.7-1.1,1.2-2.2-.4-.8-1.1-1.4-1.7-2.1-.4-.4-1-1-.9-1.4,0-.5.8-1,1.3-1.1,1-.2,2-.1,3,0,.7,0,1.4.6,2.1.7.6,0,1.2-.2,1.8-.4-.2-.7-.2-1.5-.5-2.1-.3-.5-.9-.9-1.4-1.2-1.9-1.3-4-2.6-5.9-4-6.9-5-13.8-10-21.2-15.4ZM641.9,224s0,0,0,0c-.5.7-1.1,1.4-1.4,2.2-.2.7,0,1.5,0,2.2.7-.2,1.6,0,2.1-.5,2.2-1.8,4.7-3.2,7.5-3.8,2.2-.5,3.4-1.8,3.8-3.9.3-1.5.9-2,2.5-1.4,2.6,1.1,3.1.6,2.6-2.3-.5-3.3-2.7-5.8-4.3-8.6-2.9-5.1-8-6.8-12.8-9-1.2-.6-2-.1-2.2,1.4,0,.5-.8,1.3-1.2,1.3-2.2.1-1.8,1.4-1.2,2.6.4.7.9,1.3,1.4,2,1.7,2.1,3.2,4.2,2,7.1-.9,2.1-.1,3.5,1.7,4.5,1.7,1,2,2.3,1,4.1-.4.7-.9,1.3-1.4,2ZM663.1,238.8c0,0-.2,0-.3-.1-.8,1.1-1.7,2.1-2.4,3.3-.9,1.5-.2,3.1,1.4,3.7.9.4,1.8.8,2.6,1.5,1.2,1.1,2,1,2.9-.4,1.8-3,3.7-5.9,5.5-8.9.8-1.3.7-2.4-.5-3.4-.9-.7-1.8-1.4-2.6-2.2-1.9-1.9-2.9-1.7-3.9.7-.9,2-1.8,3.9-2.7,5.8ZM554.7,178.8c-.3.7-.6,1.4-.9,2.2-.1.3-.1,1,0,1.1.4.2.9.3,1.3.1.5-.2,1.1-.6,1.5-1.1,1.4-1.7,2.8-3.4,4.2-5.1,1.1-1.4,2.3-2.8,3.1-4.4,2.3-4.4,4.5-8.8,6.6-13.2,1.3-2.8,3.5-3.9,6.5-3.6.7,0,2-.5,2.2-1.1.3-.8,0-2-.6-2.7-.3-.4-1.7-.5-2.4-.2-1.2.6-2.4,1.5-3.4,2.5-1.5,1.5-3.1,3.1-4.3,4.8-2.8,4.1-5.4,8.4-8.1,12.6-1.2,2-2.4,4-3.7,6-.6.8-1.4,1.4-2.2,2.2ZM574.8,211.9c-.6-.5-1-1-1.5-1.4-3.2-2.5-6.4-5-8.4-8.6-1.1-1.9-2.2-3.7-3.3-5.5-.2-.3-.8-.6-1.1-.5-.3.1-.7.8-.6,1.1.7,3.2-.2,7,3.4,9.1.1,0,.2.2.3.3,2.1,2.6,4.1,5.2,6.2,7.7.3.3,1,.7,1.3.5,1.3-.7,2.4-1.6,3.8-2.6ZM657.3,247c-.3.7-.5,1.1-.8,1.5-.5.7-1.6,1.5-1.5,2,.2.9,1.1,1.7,1.9,2.3.8.6,1.9,1.4,2.8,1.4.9,0,2-.8,2.8-1.5.3-.3.1-1.6-.3-1.9-1.5-1.3-3.2-2.4-5-3.7Z"></path></g><g id="Calque_7"><line class="st4" x1="423.2" y1="225.7" x2="423.2" y2="276.7"></line><line class="st4" x1="423.2" y1="225.7" x2="423.2" y2="276.7"></line><line class="st4" x1="301.8" y1="258.5" x2="327.3" y2="302.7"></line><line class="st4" x1="213" y1="347.6" x2="257.2" y2="373.1"></line><line class="st4" x1="180.7" y1="469.2" x2="231.7" y2="469.2"></line><line class="st4" x1="213.5" y1="590.6" x2="257.7" y2="565.1"></line><line class="st4" x1="634.4" y1="589.8" x2="590.2" y2="564.3"></line><line class="st4" x1="666.7" y1="468.2" x2="615.7" y2="468.2"></line><line class="st4" x1="633.9" y1="346.8" x2="589.7" y2="372.3"></line><line class="st4" x1="544.8" y1="258" x2="519.3" y2="302.2"></line></g></svg> 